<mxfile host="Electron" modified="2023-08-06T14:00:37.984Z" agent="Mozilla/5.0 (Windows NT 10.0; WOW64) AppleWebKit/537.36 (KHTML, like Gecko) draw.io/21.6.5 Chrome/114.0.5735.243 Electron/25.3.1 Safari/537.36" etag="83gNUVVTXZJx10wXX8AB" version="21.6.5" type="device">
  <diagram name="Страница 1" id="2I7gxlydIh9YgQq8K_3X">
    <mxGraphModel dx="1562" dy="916" grid="1" gridSize="10" guides="1" tooltips="1" connect="1" arrows="1" fold="1" page="1" pageScale="1" pageWidth="827" pageHeight="1169" math="0" shadow="0">
      <root>
        <mxCell id="0" />
        <mxCell id="1" parent="0" />
        <mxCell id="6zg36_4WbI-aAlarq3tZ-2" value="" style="rounded=0;whiteSpace=wrap;html=1;" vertex="1" parent="1">
          <mxGeometry x="200" y="80" width="120" height="60" as="geometry" />
        </mxCell>
        <mxCell id="6zg36_4WbI-aAlarq3tZ-21" style="edgeStyle=orthogonalEdgeStyle;rounded=0;orthogonalLoop=1;jettySize=auto;html=1;entryX=0.5;entryY=1;entryDx=0;entryDy=0;" edge="1" parent="1" source="6zg36_4WbI-aAlarq3tZ-10" target="6zg36_4WbI-aAlarq3tZ-17">
          <mxGeometry relative="1" as="geometry" />
        </mxCell>
        <mxCell id="6zg36_4WbI-aAlarq3tZ-10" value="2" style="rounded=0;whiteSpace=wrap;html=1;fillColor=#d5e8d4;strokeColor=#FF0000;strokeWidth=2;fontSize=24;" vertex="1" parent="1">
          <mxGeometry x="360" y="480" width="120" height="60" as="geometry" />
        </mxCell>
        <mxCell id="6zg36_4WbI-aAlarq3tZ-23" style="edgeStyle=orthogonalEdgeStyle;rounded=0;orthogonalLoop=1;jettySize=auto;html=1;entryX=0.5;entryY=1;entryDx=0;entryDy=0;" edge="1" parent="1" source="6zg36_4WbI-aAlarq3tZ-11" target="6zg36_4WbI-aAlarq3tZ-22">
          <mxGeometry relative="1" as="geometry" />
        </mxCell>
        <mxCell id="6zg36_4WbI-aAlarq3tZ-11" value="3" style="rounded=0;whiteSpace=wrap;html=1;fillColor=#f8cecc;strokeColor=#FF0000;strokeWidth=2;fontSize=24;" vertex="1" parent="1">
          <mxGeometry x="360" y="640" width="120" height="60" as="geometry" />
        </mxCell>
        <mxCell id="6zg36_4WbI-aAlarq3tZ-13" value="1" style="rounded=0;whiteSpace=wrap;html=1;fillColor=#d5e8d4;strokeColor=#82b366;fontSize=24;" vertex="1" parent="1">
          <mxGeometry x="200" y="320" width="120" height="60" as="geometry" />
        </mxCell>
        <mxCell id="6zg36_4WbI-aAlarq3tZ-15" style="edgeStyle=orthogonalEdgeStyle;rounded=0;orthogonalLoop=1;jettySize=auto;html=1;entryX=0.5;entryY=1;entryDx=0;entryDy=0;fontSize=24;" edge="1" parent="1" source="6zg36_4WbI-aAlarq3tZ-14" target="6zg36_4WbI-aAlarq3tZ-13">
          <mxGeometry relative="1" as="geometry" />
        </mxCell>
        <mxCell id="6zg36_4WbI-aAlarq3tZ-14" value="1" style="rounded=0;whiteSpace=wrap;html=1;fillColor=#d5e8d4;strokeColor=#82b366;fontSize=24;" vertex="1" parent="1">
          <mxGeometry x="200" y="400" width="120" height="60" as="geometry" />
        </mxCell>
        <mxCell id="6zg36_4WbI-aAlarq3tZ-16" value="1" style="rounded=0;whiteSpace=wrap;html=1;fillColor=#f8cecc;strokeColor=#b85450;fontSize=24;" vertex="1" parent="1">
          <mxGeometry x="360" y="320" width="120" height="60" as="geometry" />
        </mxCell>
        <mxCell id="6zg36_4WbI-aAlarq3tZ-18" style="edgeStyle=orthogonalEdgeStyle;rounded=0;orthogonalLoop=1;jettySize=auto;html=1;entryX=0.5;entryY=1;entryDx=0;entryDy=0;fontSize=24;" edge="1" parent="1" source="6zg36_4WbI-aAlarq3tZ-17" target="6zg36_4WbI-aAlarq3tZ-16">
          <mxGeometry relative="1" as="geometry" />
        </mxCell>
        <mxCell id="6zg36_4WbI-aAlarq3tZ-17" value="1" style="rounded=0;whiteSpace=wrap;html=1;fillColor=#f8cecc;strokeColor=#b85450;fontSize=24;" vertex="1" parent="1">
          <mxGeometry x="360" y="400" width="120" height="60" as="geometry" />
        </mxCell>
        <mxCell id="6zg36_4WbI-aAlarq3tZ-20" style="edgeStyle=orthogonalEdgeStyle;rounded=0;orthogonalLoop=1;jettySize=auto;html=1;entryX=0.5;entryY=1;entryDx=0;entryDy=0;fontSize=24;" edge="1" parent="1" source="6zg36_4WbI-aAlarq3tZ-19" target="6zg36_4WbI-aAlarq3tZ-14">
          <mxGeometry relative="1" as="geometry" />
        </mxCell>
        <mxCell id="6zg36_4WbI-aAlarq3tZ-19" value="2" style="rounded=0;whiteSpace=wrap;html=1;fillColor=#f8cecc;strokeColor=#00CC00;strokeWidth=2;fontSize=24;" vertex="1" parent="1">
          <mxGeometry x="200" y="480" width="120" height="60" as="geometry" />
        </mxCell>
        <mxCell id="6zg36_4WbI-aAlarq3tZ-24" style="edgeStyle=orthogonalEdgeStyle;rounded=0;orthogonalLoop=1;jettySize=auto;html=1;entryX=0.5;entryY=1;entryDx=0;entryDy=0;" edge="1" parent="1" source="6zg36_4WbI-aAlarq3tZ-22" target="6zg36_4WbI-aAlarq3tZ-10">
          <mxGeometry relative="1" as="geometry" />
        </mxCell>
        <mxCell id="6zg36_4WbI-aAlarq3tZ-22" value="2" style="rounded=0;whiteSpace=wrap;html=1;fillColor=#d5e8d4;strokeColor=#FF0000;strokeWidth=2;fontSize=24;" vertex="1" parent="1">
          <mxGeometry x="360" y="560" width="120" height="60" as="geometry" />
        </mxCell>
        <mxCell id="6zg36_4WbI-aAlarq3tZ-29" style="edgeStyle=orthogonalEdgeStyle;rounded=0;orthogonalLoop=1;jettySize=auto;html=1;entryX=0;entryY=0.5;entryDx=0;entryDy=0;curved=1;" edge="1" parent="1" source="6zg36_4WbI-aAlarq3tZ-27" target="6zg36_4WbI-aAlarq3tZ-14">
          <mxGeometry relative="1" as="geometry" />
        </mxCell>
        <mxCell id="6zg36_4WbI-aAlarq3tZ-31" style="edgeStyle=orthogonalEdgeStyle;rounded=0;orthogonalLoop=1;jettySize=auto;html=1;entryX=0;entryY=0.5;entryDx=0;entryDy=0;curved=1;" edge="1" parent="1" source="6zg36_4WbI-aAlarq3tZ-27" target="6zg36_4WbI-aAlarq3tZ-13">
          <mxGeometry relative="1" as="geometry" />
        </mxCell>
        <mxCell id="6zg36_4WbI-aAlarq3tZ-27" value="&lt;b&gt;Функция &lt;br&gt;&lt;font color=&quot;#009900&quot;&gt;GET &lt;/font&gt;или&lt;font color=&quot;#009900&quot;&gt;&amp;nbsp;&lt;/font&gt;&lt;font color=&quot;#cc00cc&quot;&gt;LIFETIME&lt;/font&gt;&lt;br&gt;&lt;font color=&quot;#0000ff&quot;&gt;с&lt;/font&gt; КЭШированием&lt;br&gt;&lt;/b&gt;" style="text;html=1;strokeColor=none;fillColor=none;align=center;verticalAlign=middle;whiteSpace=wrap;rounded=0;" vertex="1" parent="1">
          <mxGeometry x="40" y="370" width="120" height="40" as="geometry" />
        </mxCell>
        <mxCell id="6zg36_4WbI-aAlarq3tZ-33" style="edgeStyle=orthogonalEdgeStyle;rounded=0;orthogonalLoop=1;jettySize=auto;html=1;entryX=1;entryY=0.5;entryDx=0;entryDy=0;curved=1;" edge="1" parent="1" source="6zg36_4WbI-aAlarq3tZ-32" target="6zg36_4WbI-aAlarq3tZ-10">
          <mxGeometry relative="1" as="geometry" />
        </mxCell>
        <mxCell id="6zg36_4WbI-aAlarq3tZ-34" style="edgeStyle=orthogonalEdgeStyle;rounded=0;orthogonalLoop=1;jettySize=auto;html=1;entryX=1;entryY=0.5;entryDx=0;entryDy=0;curved=1;" edge="1" parent="1" source="6zg36_4WbI-aAlarq3tZ-32" target="6zg36_4WbI-aAlarq3tZ-22">
          <mxGeometry relative="1" as="geometry" />
        </mxCell>
        <mxCell id="6zg36_4WbI-aAlarq3tZ-32" value="&lt;b&gt;Функция &lt;font color=&quot;#009900&quot;&gt;GET&amp;nbsp;&lt;/font&gt;&lt;/b&gt;&lt;b style=&quot;border-color: var(--border-color);&quot;&gt;или&lt;font style=&quot;border-color: var(--border-color);&quot; color=&quot;#009900&quot;&gt;&amp;nbsp;&lt;/font&gt;&lt;font style=&quot;border-color: var(--border-color);&quot; color=&quot;#cc00cc&quot;&gt;LIFETIME&lt;/font&gt;&lt;/b&gt;&lt;b&gt;&lt;br&gt;&lt;font color=&quot;#0000ff&quot;&gt;без &lt;/font&gt;КЭШирования&lt;br&gt;потому что вызывается из &lt;font color=&quot;#ff0000&quot;&gt;PUT&lt;/font&gt;&lt;br&gt;&lt;/b&gt;" style="text;html=1;strokeColor=none;fillColor=none;align=center;verticalAlign=middle;whiteSpace=wrap;rounded=0;" vertex="1" parent="1">
          <mxGeometry x="530" y="515" width="150" height="70" as="geometry" />
        </mxCell>
        <mxCell id="6zg36_4WbI-aAlarq3tZ-36" style="edgeStyle=orthogonalEdgeStyle;rounded=0;orthogonalLoop=1;jettySize=auto;html=1;entryX=1;entryY=0.5;entryDx=0;entryDy=0;curved=1;" edge="1" parent="1" source="6zg36_4WbI-aAlarq3tZ-35" target="6zg36_4WbI-aAlarq3tZ-16">
          <mxGeometry relative="1" as="geometry" />
        </mxCell>
        <mxCell id="6zg36_4WbI-aAlarq3tZ-37" style="edgeStyle=orthogonalEdgeStyle;rounded=0;orthogonalLoop=1;jettySize=auto;html=1;entryX=1;entryY=0.5;entryDx=0;entryDy=0;curved=1;" edge="1" parent="1" source="6zg36_4WbI-aAlarq3tZ-35" target="6zg36_4WbI-aAlarq3tZ-17">
          <mxGeometry relative="1" as="geometry" />
        </mxCell>
        <mxCell id="6zg36_4WbI-aAlarq3tZ-35" value="&lt;b&gt;Функция &lt;font color=&quot;#ff0000&quot;&gt;PUT&lt;/font&gt;&lt;br&gt;изменение данных&lt;br&gt;&lt;/b&gt;" style="text;html=1;strokeColor=none;fillColor=none;align=center;verticalAlign=middle;whiteSpace=wrap;rounded=0;" vertex="1" parent="1">
          <mxGeometry x="530" y="365" width="110" height="50" as="geometry" />
        </mxCell>
        <mxCell id="6zg36_4WbI-aAlarq3tZ-39" style="edgeStyle=orthogonalEdgeStyle;rounded=0;orthogonalLoop=1;jettySize=auto;html=1;entryX=0;entryY=0.5;entryDx=0;entryDy=0;curved=1;" edge="1" parent="1" source="6zg36_4WbI-aAlarq3tZ-38" target="6zg36_4WbI-aAlarq3tZ-19">
          <mxGeometry relative="1" as="geometry" />
        </mxCell>
        <mxCell id="6zg36_4WbI-aAlarq3tZ-38" value="&lt;b&gt;Функция &lt;font color=&quot;#ff0000&quot;&gt;PUT&lt;/font&gt;&lt;br&gt;указания события изменения КЭШа потому что вызывается из &lt;font color=&quot;#009900&quot;&gt;GET&lt;/font&gt;&lt;br&gt;&lt;/b&gt;" style="text;html=1;strokeColor=none;fillColor=none;align=center;verticalAlign=middle;whiteSpace=wrap;rounded=0;" vertex="1" parent="1">
          <mxGeometry x="60" y="540" width="170" height="80" as="geometry" />
        </mxCell>
        <mxCell id="6zg36_4WbI-aAlarq3tZ-41" style="edgeStyle=orthogonalEdgeStyle;rounded=0;orthogonalLoop=1;jettySize=auto;html=1;entryX=0;entryY=0.5;entryDx=0;entryDy=0;curved=1;" edge="1" parent="1" source="6zg36_4WbI-aAlarq3tZ-40" target="6zg36_4WbI-aAlarq3tZ-11">
          <mxGeometry relative="1" as="geometry" />
        </mxCell>
        <mxCell id="6zg36_4WbI-aAlarq3tZ-40" value="&lt;b&gt;Функция &lt;font color=&quot;#ff0000&quot;&gt;PUT&lt;/font&gt;&lt;br&gt;просто пропускается потому что вызывается из &lt;font color=&quot;#009900&quot;&gt;GET&lt;/font&gt; и &lt;font color=&quot;#ff0000&quot;&gt;PUT&lt;/font&gt;&lt;br&gt;&lt;/b&gt;" style="text;html=1;strokeColor=none;fillColor=none;align=center;verticalAlign=middle;whiteSpace=wrap;rounded=0;" vertex="1" parent="1">
          <mxGeometry x="90" y="620" width="230" height="80" as="geometry" />
        </mxCell>
      </root>
    </mxGraphModel>
  </diagram>
</mxfile>
